# xmcd
#
# Track frame offsets: 
#        150
#        13799
#        29356
#        41337
#        55255
#        71045
#        87347
#        100697
#        113734
#        129512
#        144152
#        158565
#        173904
#        187569
#        200649
#        216203
#
# Disc length: 3062 seconds
#
# Revision: 0
# Processed by: cddbd v1.5.2PL0 Copyright (c) Steve Scherf et al.
# Submitted via: ExactAudioCopyFreeDBPlugin 1.0
#
DISCID=d00bf410
DTITLE=Grutte Geart - 5 jaar Grutte Geart
DYEAR=2012
DGENRE=
TTITLE0=Wij samen
TTITLE1=Rosie
TTITLE2=Meisje van m'n MSN
TTITLE3=Mijn windje
TTITLE4=Wat doet een cowboy in Parijs
TTITLE5=De overall gaat aan de muur
TTITLE6=Er valt een traan in mijn bier
TTITLE7=Geluk is niet te koop
TTITLE8=Was het nou in Drachten
TTITLE9=Vanavond gaan we weer goed los
TTITLE10=Echte Friezen
TTITLE11=Zilveren ster
TTITLE12=Grutte Geart lied
TTITLE13=Der falt in trin yn myn bier
TTITLE14=Rosie (Duits)
TTITLE15=We should be together
EXTD=
EXTT0=
EXTT1=
EXTT2=
EXTT3=
EXTT4=
EXTT5=
EXTT6=
EXTT7=
EXTT8=
EXTT9=
EXTT10=
EXTT11=
EXTT12=
EXTT13=
EXTT14=
EXTT15=
PLAYORDER=
